<svg xmlns="http://www.w3.org/2000/svg" width="256" height="256" viewBox="0 0 256 256">
<g>
<path d="M 0.00 0.00 L 256.00 0.00 L 256.00 256.00 L 0.00 256.00 ZM 96.00 207.41 C113.32,214.26 127.67,219.89 127.88,219.93 C128.08,219.97 132.13,218.46 136.88,216.58 C141.62,214.70 152.02,210.63 160.00,207.53 C167.98,204.43 179.34,200.01 185.25,197.70 L 196.00 193.50 L 195.75 169.67 L 195.50 145.85 L 176.50 137.61 C166.05,133.09 156.69,128.92 155.69,128.37 C154.21,127.54 157.73,125.66 174.94,118.07 L 196.00 108.79 L 195.99 85.15 L 195.97 61.50 L 180.74 55.61 C172.36,52.38 157.17,46.43 146.99,42.39 L 128.47 35.06 L 111.99 41.47 C102.92,44.99 89.65,50.20 82.50,53.03 C75.35,55.87 67.36,58.91 64.75,59.78 L 60.00 61.38 L 60.00 193.78 L 62.25 194.37 C63.49,194.70 78.68,200.56 96.00,207.41 ZM 147.50 181.90 C137.61,185.80 128.83,188.98 128.00,188.95 C127.18,188.93 118.18,185.60 108.00,181.55 L 89.50 174.20 L 88.98 81.21 L 127.50 65.79 L 132.00 67.29 C134.48,68.11 143.48,71.51 152.00,74.84 L 167.50 80.90 L 167.15 85.70 C166.96,88.34 166.51,90.63 166.15,90.78 C165.79,90.94 156.95,94.79 146.50,99.35 L 127.50 107.63 L 126.96 147.01 L 131.23 149.00 C133.58,150.09 142.70,154.11 151.50,157.93 L 167.50 164.86 L 167.61 168.93 C167.67,171.16 167.22,173.40 166.61,173.89 C166.00,174.39 157.40,177.99 147.50,181.90 Z" fill="rgb(54,169,87)"/>
<path d="M 96.00 207.41 C78.68,200.56 63.49,194.70 62.25,194.37 L 60.00 193.78 L 60.00 127.58 L 60.00 61.38 L 64.75 59.78 C67.36,58.91 75.35,55.87 82.50,53.03 C89.65,50.20 102.92,44.99 111.99,41.47 L 128.47 35.06 L 146.99 42.39 C157.17,46.43 172.36,52.38 180.74,55.61 L 195.97 61.50 L 195.99 85.15 L 196.00 108.79 L 174.94 118.07 C157.73,125.66 154.21,127.54 155.69,128.37 C156.69,128.92 166.05,133.09 176.50,137.61 L 195.50 145.85 L 195.75 169.67 L 196.00 193.50 L 185.25 197.70 C179.34,200.01 167.98,204.43 160.00,207.53 C152.02,210.63 141.62,214.70 136.88,216.58 C132.13,218.46 128.08,219.97 127.88,219.93 C127.67,219.89 113.32,214.26 96.00,207.41 ZM 147.50 181.90 C157.40,177.99 166.00,174.39 166.61,173.89 C167.22,173.40 167.67,171.16 167.61,168.93 L 167.50 164.86 L 151.50 157.93 C142.70,154.11 133.58,150.09 131.23,149.00 L 126.96 147.01 L 127.23 127.32 L 127.50 107.63 L 146.50 99.35 C156.95,94.79 165.79,90.94 166.15,90.78 C166.51,90.63 166.96,88.34 167.15,85.70 L 167.50 80.90 L 152.00 74.84 C143.48,71.51 134.48,68.11 132.00,67.29 L 127.50 65.79 L 108.24 73.50 L 88.98 81.21 L 89.24 127.70 L 89.50 174.20 L 108.00 181.55 C118.18,185.60 127.18,188.93 128.00,188.95 C128.83,188.98 137.61,185.80 147.50,181.90 Z" fill="rgb(251,253,251)"/>
</g>
</svg>